<?xml version="1.0" encoding="UTF-8"?><svg id="a" xmlns="http://www.w3.org/2000/svg" width="1000" height="200" xmlns:xlink="http://www.w3.org/1999/xlink" viewBox="0 0 1000 200"><defs><style>.c{stroke:#000;stroke-linecap:round;stroke-miterlimit:10;stroke-width:6px;}.d{clip-path:url(#b);}.e{fill:none;}</style><clipPath id="b"><rect class="e" x="633.35" y="75.3" width="74.42" height="25.27"/></clipPath></defs><g><path d="m8.5,75.52v24.89h21.57v82.67h30.2v-82.14l64.11-43.8s3.18-9.1-6-8.12c0,0-83.36,25.96-92.19,26.31s-17.69.18-17.69.18Z"/><line class="c" x1="128.5" y1="47.19" x2="158.15" y2="20.78"/><circle cx="45.61" cy="49.6" r="15.61"/><g><path d="m128.16,152.73l28.86,1.94c-1.71,7.76-6.06,14.36-13.07,19.82-7.01,5.46-16.48,8.18-28.43,8.18-13.29,0-23.89-3.84-31.81-11.52-7.91-7.68-11.87-17.21-11.87-28.59s3.9-21.75,11.71-29.87c7.81-8.12,18.23-12.18,31.26-12.18s22.82,3.83,30.6,11.48c7.78,7.65,11.68,18.08,11.68,31.26,0,1.09-.03,2.59-.08,4.5h-52.83c.1,4.96.98,8.65,2.64,11.05,1.65,2.4,4.81,3.61,9.46,3.61,6.72,0,10.68-3.23,11.87-9.7Zm-2.09-20.48c-.05-5.33-1.12-8.91-3.21-10.74-2.09-1.83-4.68-2.75-7.77-2.75-7.32,0-10.98,4.5-10.98,13.5h21.95Z"/><path d="m248.72,181.05h-29.48c-.73-3.36-1.09-7.03-1.09-11.02-5.59,8.43-14.04,12.64-25.37,12.64-9.31,0-16.28-2.38-20.91-7.14-4.63-4.76-6.94-10.21-6.94-16.37,0-8.33,3.79-15.06,11.36-20.21,7.58-5.15,21.01-8.23,40.3-9.27v-1.78c0-3.46-.79-5.77-2.37-6.9-1.58-1.14-3.89-1.71-6.94-1.71-7.14,0-11.12,2.87-11.95,8.61l-28.24-2.64c4.03-16.5,17.76-24.75,41.19-24.75,6.36,0,12.21.63,17.53,1.9,5.33,1.27,9.54,3.25,12.64,5.93,3.1,2.69,5.18,5.54,6.24,8.53,1.06,3,1.59,8.77,1.59,17.3v31.5c0,6,.8,11.12,2.4,15.36Zm-32.12-36.93c-13.19,1.4-19.78,5.61-19.78,12.64,0,4.76,2.61,7.14,7.84,7.14,3.31,0,6.13-.98,8.46-2.95,2.33-1.97,3.49-6.31,3.49-13.03v-3.8Z"/><path d="m309.92,149.24l26.38,2.25c-1.24,9.21-5.11,16.71-11.6,22.5-6.49,5.79-15.12,8.69-25.87,8.69-12.05,0-21.84-3.79-29.36-11.36-7.52-7.58-11.29-17.29-11.29-29.13s3.74-22.07,11.21-29.91c7.47-7.84,17.18-11.75,29.13-11.75,10.6,0,19.24,2.96,25.91,8.88,6.67,5.92,10.5,13.41,11.48,22.46l-27.07,2.25c-1.14-8.33-4.29-12.49-9.46-12.49-3.31,0-5.73,1.51-7.25,4.54-1.53,3.03-2.29,8.29-2.29,15.79,0,6.47.76,11.25,2.29,14.35,1.52,3.1,4.18,4.65,7.95,4.65,5.53,0,8.82-3.9,9.85-11.71Z"/><path d="m424.89,181.05h-30.95v-47.48c0-4.34-.48-7.33-1.43-8.96-.95-1.63-2.79-2.44-5.52-2.44-2.11,0-3.95.63-5.52,1.9-1.57,1.27-2.48,2.57-2.74,3.92-.26,1.35-.39,4.16-.39,8.46v44.61h-30.95v-105.89h30.95v36.31c5.59-7.29,12.88-10.94,21.88-10.94,4.55,0,8.54.79,11.99,2.37,3.44,1.58,6.09,3.61,7.95,6.09,1.86,2.48,3.11,4.89,3.76,7.21.65,2.33.97,6.83.97,13.5v51.36Z"/><path d="m493.39,152.73l28.86,1.94c-1.71,7.76-6.06,14.36-13.07,19.82-7.01,5.46-16.48,8.18-28.43,8.18-13.29,0-23.89-3.84-31.81-11.52-7.91-7.68-11.87-17.21-11.87-28.59s3.9-21.75,11.71-29.87c7.81-8.12,18.23-12.18,31.26-12.18s22.82,3.83,30.6,11.48c7.78,7.65,11.68,18.08,11.68,31.26,0,1.09-.03,2.59-.08,4.5h-52.83c.1,4.96.98,8.65,2.64,11.05,1.65,2.4,4.81,3.61,9.46,3.61,6.72,0,10.68-3.23,11.87-9.7Zm-2.09-20.48c-.05-5.33-1.12-8.91-3.21-10.74-2.09-1.83-4.68-2.75-7.77-2.75-7.32,0-10.98,4.5-10.98,13.5h21.95Z"/><path d="m564.06,181.05h-29.63v-78.89h25.76v16.29c2.95-11.84,9.8-17.76,20.56-17.76,1.09,0,2.59.1,4.5.31v27.54c-2.17-.52-4.11-.78-5.82-.78-10.24,0-15.36,5.71-15.36,17.14v36.15Z"/></g></g><g><path d="m740.22,181.47h-29.52v-78.59h25.66v16.23c2.94-11.8,9.76-17.7,20.48-17.7,1.08,0,2.58.1,4.48.31v27.43c-2.16-.51-4.1-.77-5.8-.77-10.2,0-15.3,5.69-15.3,17.08v36.01Z"/><path d="m835.66,181.47h-17.39v-105.48h30.37v36.24c4.22-7.31,10.95-10.97,20.17-10.97,6.49,0,12,1.7,16.54,5.1,4.53,3.4,7.91,8.26,10.12,14.57,2.21,6.31,3.32,12.94,3.32,19.9,0,12.67-2.83,22.89-8.5,30.64-5.67,7.75-14.12,11.63-25.35,11.63s-19.5-4.15-25.27-12.44c-1.65,3.09-2.99,6.7-4.02,10.82Zm12.98-29.29c0,7.73,2.99,11.59,8.96,11.59,3.25,0,5.73-1.4,7.46-4.21,1.73-2.81,2.59-8.59,2.59-17.35,0-9.53-.98-15.52-2.94-17.97-1.96-2.45-4.38-3.67-7.26-3.67-2.27,0-4.3.88-6.1,2.63-1.8,1.75-2.7,4.3-2.7,7.65v21.33Z"/><path d="m963.01,153.26l28.75,1.93c-1.7,7.73-6.04,14.31-13.02,19.74-6.98,5.44-16.42,8.15-28.32,8.15-13.24,0-23.8-3.83-31.68-11.48-7.88-7.65-11.82-17.14-11.82-28.48s3.89-21.66,11.67-29.75c7.78-8.09,18.16-12.13,31.14-12.13s22.73,3.81,30.49,11.44c7.75,7.62,11.63,18.01,11.63,31.14,0,1.08-.03,2.58-.08,4.48h-52.63c.1,4.95.98,8.62,2.63,11.01,1.65,2.4,4.79,3.59,9.43,3.59,6.7,0,10.64-3.22,11.82-9.66Zm-2.09-20.4c-.05-5.31-1.12-8.87-3.2-10.7-2.08-1.83-4.66-2.74-7.74-2.74-7.29,0-10.93,4.48-10.93,13.45h21.87Z"/><g><rect x="771.05" y="149.01" width="30.83" height="32.62"/><circle cx="786.39" cy="91.16" r="15.33"/><rect x="771.05" y="112.51" width="30.83" height="63.19" rx="9.21" ry="9.21"/></g><g><g><path d="m659.75,123.17l10.56-11.97,10.56,11.97c1.17,1.31,3.06,1.31,4.23,0,1.17-1.33,1.17-3.47,0-4.8l-12.67-14.36c-1.17-1.31-3.06-1.31-4.22,0l-12.67,14.36c-1.17,1.33-1.16,3.47,0,4.8,1.17,1.31,3.06,1.31,4.23,0Z"/><path d="m672.42,120.29c-1.17-1.31-3.06-1.31-4.22,0l-12.67,14.36c-1.17,1.33-1.16,3.47,0,4.8,1.17,1.31,3.06,1.31,4.23,0l10.56-11.97,10.56,11.97c1.17,1.31,3.06,1.31,4.23,0,1.17-1.33,1.17-3.47,0-4.8l-12.67-14.36Z"/></g><g><path d="m659.75,164.88l10.56-11.97,10.56,11.97c1.17,1.31,3.06,1.31,4.23,0,1.17-1.33,1.17-3.47,0-4.8l-12.67-14.36c-1.17-1.31-3.06-1.31-4.22,0l-12.67,14.36c-1.17,1.33-1.16,3.47,0,4.8,1.17,1.31,3.06,1.31,4.23,0Z"/><path d="m672.42,162.01c-1.17-1.31-3.06-1.31-4.22,0l-12.67,14.36c-1.17,1.33-1.16,3.47,0,4.8,1.17,1.31,3.06,1.31,4.23,0l10.56-11.97,10.56,11.97c1.17,1.31,3.06,1.31,4.23,0,1.17-1.33,1.17-3.47,0-4.8l-12.67-14.36Z"/></g></g><g class="d"><path d="m685.9,100.57v80.21h-30.68v-80.21h-21.87v-25.27h74.42v25.27h-21.87Z"/></g></g></svg>